{"title":"Du&amp;Jag (2006) x264 DVDRip Swedish","uid":14116457,"size":1689833716,"categoryP":"video","categoryS":"movies","magnet":"?xt=urn:btih:6f48a4254773aa341ed2890ee464f6990531bf6a&amp;dn=Du%26amp%3BJag+%282006%29+x264+DVDRip+Swedish&amp;tr=udp%3A%2F%2Ftracker.leechers-paradise.org%3A6969&amp;tr=udp%3A%2F%2Fzer0day.ch%3A1337&amp;tr=udp%3A%2F%2Fopen.demonii.com%3A1337&amp;tr=udp%3A%2F%2Ftracker.coppersurfer.tk%3A6969&amp;tr=udp%3A%2F%2Fexodus.desync.com%3A6969","seeders":1,"leechers":0,"uploader":"brunnana","files":1,"time":1459424509,"description":"Du&amp;Jag.2006.x264.dvdrip.Swedish.avi.torrent\r\n\r\nGeneral\r\nFormat                           : AVI\r\nFormat/Info                      : Audio Video Interleave\r\nFormat profile                   : OpenDML\r\nFile size                        : 1.57 GiB\r\nDuration                         : 1h 25mn\r\nOverall bit rate                 : 2 634 Kbps\r\nWriting application              : MEncoder SVN-r33883(20110719-gcc4.5.2)\r\nWriting library                  : MPlayer\r\n\r\nVideo\r\nID                               : 0\r\nFormat                           : AVC\r\nFormat/Info                      : Advanced Video Codec\r\nFormat profile                   :   \r\nFormat settings, CABAC           : No\r\nFormat settings, ReFrames        : 1 frame\r\nCodec ID                         : avc1\r\nDuration                         : 1h 25mn\r\nBit rate                         : 2 500 Kbps\r\nWidth                            : 856 pixels\r\nHeight                           : 480 pixels\r\nDisplay aspect ratio             : 16:9\r\nFrame rate                       : 30.000 fps\r\nColor space                      : YUV\r\nChroma subsampling               : 4:2:0\r\nBit depth                        : 8 bits\r\nScan type                        : Progressive\r\nBits/(Pixel*Frame)               : 0.203\r\nStream size                      : 1.49 GiB (95%)\r\nWriting library                  : x264 core 116 r2019 9cc407d\r\nEncoding settings                : cabac=0 / ref=1 / deblock=1:0:0 / analyse=0x3:0x113 / me=hex / subme=7 / psy=1 / psy_rd=1.00:0.00 / mixed_ref=0 / me_range=16 / chroma_me=1 / trellis=1 / 8x8dct=1 / cqm=0 / deadzone=21,11 / fast_pskip=1 / chroma_qp_offset=-2 / threads=6 / sliced_threads=0 / nr=0 / decimate=1 / interlaced=0 / bluray_compat=0 / constrained_intra=0 / bframes=0 / weightp=2 / keyint=250 / keyint_min=25 / scenecut=40 / intra_refresh=0 / rc_lookahead=40 / rc=abr / mbtree=1 / bitrate=2500 / ratetol=1.0 / qcomp=0.60 / qpmin=0 / qpmax=69 / qpstep=4 / ip_ratio=1.40 / aq=1:1.00\r\n\r\nAudio\r\nID                               : 1\r\nFormat                           : MPEG Audio\r\nFormat version                   : Version 1\r\nFormat profile                   : Layer 3\r\nMode                             : Joint stereo\r\nMode extension                   : MS Stereo\r\nCodec ID                         : 55\r\nCodec ID/Hint                    : MP3\r\nDuration                         : 1h 25mn\r\nBit rate mode                    : Constant\r\nBit rate                         : 128 Kbps\r\nChannel(s)                       : 2 channels\r\nSampling rate                    : 44.1 KHz\r\nCompression mode                 : Lossy\r\nStream size                      : 78.3 MiB (5%)\r\nAlignment                        : Aligned on interleaves\r\nInterleave, duration             : 26 ms (0.78 video frame)\r\nInterleave, preload duration     : 2037 ms","torrent":{"xt":"urn:btih:6f48a4254773aa341ed2890ee464f6990531bf6a","amp;dn":"Du%26amp%3BJag+%282006%29+x264+DVDRip+Swedish","amp;tr":["udp%3A%2F%2Ftracker.leechers-paradise.org%3A6969","udp%3A%2F%2Fzer0day.ch%3A1337","udp%3A%2F%2Fopen.demonii.com%3A1337","udp%3A%2F%2Ftracker.coppersurfer.tk%3A6969","udp%3A%2F%2Fexodus.desync.com%3A6969"],"infoHash":"6f48a4254773aa341ed2890ee464f6990531bf6a","infoHashBuffer":{"type":"Buffer","data":[111,72,164,37,71,115,170,52,30,210,137,14,228,100,246,153,5,49,191,106]},"announce":[],"urlList":[]}}